<?xml version="1.0" encoding="UTF-8" standalone="no"?>
<svg
   xmlns:dc="http://purl.org/dc/elements/1.1/"
   xmlns:cc="http://creativecommons.org/ns#"
   xmlns:rdf="http://www.w3.org/1999/02/22-rdf-syntax-ns#"
   xmlns:svg="http://www.w3.org/2000/svg"
   xmlns="http://www.w3.org/2000/svg"
   viewBox="0 0 600 600"
   height="600"
   width="600"
   xml:space="preserve"
   id="svg2"
   version="1.1"><metadata
     id="metadata8"><rdf:RDF><cc:Work
         rdf:about=""><dc:format>image/svg+xml</dc:format><dc:type
           rdf:resource="http://purl.org/dc/dcmitype/StillImage" /></cc:Work></rdf:RDF></metadata><defs
     id="defs6"><clipPath
       id="clipPath18"
       clipPathUnits="userSpaceOnUse"><path
         id="path16"
         d="M 0,450 H 450 V 0 H 0 Z" /></clipPath><clipPath
       id="clipPath42"
       clipPathUnits="userSpaceOnUse"><path
         id="path40"
         d="M 0,450 H 450 V 0 H 0 Z" /></clipPath></defs><g
     transform="matrix(1.3333333,0,0,-1.3333333,0,600)"
     id="g10"><g
       id="g12"><g
         clip-path="url(#clipPath18)"
         id="g14"><g
           transform="translate(271.1141,416.0772)"
           id="g20"><path
             id="path22"
             style="fill:#aa4956;fill-opacity:1;fill-rule:nonzero;stroke:none"
             d="m 0,0 c 25.816,-8.673 51.792,-18.129 73.792,-34.592 47.912,-41.29 75.39,-106.856 67.1,-169.893 -1.783,-4.444 0.19,-11.154 -2.942,-14.596 -2.286,1.349 -1.41,5.238 -1.682,7.577 0.633,8.938 -0.005,17.894 -0.505,26.839 -7.806,85.699 -81.454,162.478 -167.57,170.474 -1.409,0.174 -2.742,-0.563 -2.834,-1.316 0.88,-2.996 7.024,-0.471 9.444,-2.176 25.452,-5.752 50.224,-16.363 71.219,-31.928 3.174,-1.221 15.842,-14.843 17.18,-10.252 1.794,4.363 15.769,-11.2 17.635,-13.451 76.142,-76.006 67.603,-222.926 -32.488,-280.722 -21.985,-13.024 -45.137,-27.636 -71.757,-26.575 -31.286,-12.409 -64.566,-6.473 -95.966,3.249 -9.951,3.037 -18.595,9.315 -28.24,13.1 -0.482,0.155 -1.048,0.486 -1.485,-0.155 87.033,-59.4 217.35,-21.236 272.963,64.491 62.421,97.977 21.857,237.023 -81.443,289.564 C 23.293,0.63 2.182,6.43 -19.843,6.258 -13.1,4.565 -6.388,2.863 0,0" /></g><g
           transform="translate(72.6775,92.0801)"
           id="g24"><path
             id="path26"
             style="fill:#aa4956;fill-opacity:1;fill-rule:nonzero;stroke:none"
             d="m 0,0 c 2.816,-2.041 4.38,-4.288 6.977,-6.935 -28.617,39.227 -53.062,87.337 -46.272,137.487 5.751,-15.476 4.653,-32.507 11.775,-47.685 8.182,-21.569 20.866,-44.775 38.577,-59.277 -28.37,43.528 -46.051,98.099 -33.441,150.573 0.957,30.811 17.529,57.556 36.837,80.185 15.314,13.739 28.919,30.649 49.596,35.713 9.3,2.561 16.946,9.385 26.322,11.781 5.054,2.631 10.795,1.59 15.939,3.971 2.43,1.094 5.044,2.08 7.899,1.406 1.226,-0.035 3.473,0.172 3.464,1.739 -1.693,1.716 -11.878,-0.473 -14.605,-1.185 -4.86,-0.757 -9.966,-0.122 -14.4,-2.954 -1.606,-1.007 -3.428,-1.241 -5.277,-0.373 -3.024,1.299 -6.36,-0.391 -9.519,0.332 -6.872,-3.001 -15.113,-3.87 -20.709,-9.164 -1.015,-1.911 -7.035,-1.502 -6.957,0.927 -2.659,3.806 -14.178,-5.165 -16.767,-7.7 C 23.634,281.768 15.753,277.57 8.352,272.525 -4.252,266.103 -8.271,251.523 -17.86,242.146 -24.173,233.135 -29.212,222.97 -33.603,212.773 -38.252,200.213 -45.905,188.252 -47.159,174.821 -52.829,113.316 -44.662,46.466 0,0" /></g><g
           transform="translate(114.3163,82.9795)"
           id="g28"><path
             id="path30"
             style="fill:#aa4956;fill-opacity:1;fill-rule:nonzero;stroke:none"
             d="m 0,0 c 41.64,-32.059 97.191,-50.153 149.383,-38.823 2.78,0.911 16.087,3.143 9.383,6.755 C 90.184,-39.109 37.767,-27.193 -16.096,17.602 -11.963,10.878 -6.002,5.164 0,0" /></g><g
           transform="translate(133.9852,397.7708)"
           id="g32"><path
             id="path34"
             style="fill:#aa4956;fill-opacity:1;fill-rule:nonzero;stroke:none"
             d="m 0,0 c 10.375,3.33 20.053,9.049 30.498,12.602 9.351,2.117 18.436,5.274 27.469,8.435 16.007,3.703 32.451,3.582 48.565,4.666 C 76.827,30.889 43.974,24.991 16.53,12.63 13.791,11.485 -4.579,2.585 0,0" /></g></g></g><g
       id="g36"><g
         clip-path="url(#clipPath42)"
         id="g38"><g
           transform="translate(207.587,188.8721)"
           id="g44"><path
             id="path46"
             style="fill:#373535;fill-opacity:1;fill-rule:nonzero;stroke:none"
             d="M 0,0 C 0.929,-4.261 3.014,-7.103 6.197,-8.445 6.4,-8.531 6.47,-8.593 6.472,-8.593 6.49,-8.622 6.638,-8.894 6.634,-10.046 l 10e-4,-0.337 0.072,-0.322 c 0.004,-0.019 0.108,-0.495 0.262,-1.486 h 5.909 c -0.173,1.22 -0.319,2.02 -0.402,2.44 -0.011,1.63 -0.246,5.102 -4.009,6.688 C 7.604,-2.699 6.379,-1.854 5.705,1.258 5.363,2.837 4.169,4.8 2.352,5.378 -10.949,9.613 -19.64,20.349 -25.827,40.186 c -4.436,14.218 -4.18,29.862 -3.46,41.903 1.24,20.781 5.618,46.386 7.443,56.429 0.904,4.976 1.789,10.835 2.726,17.038 1.173,7.762 2.386,15.789 3.651,22.047 0.066,0.326 0.126,0.544 0.173,0.686 0.05,0.002 0.102,0 0.178,0.003 h 63.909 c 0.06,0.001 0.115,-0.001 0.161,-0.003 0.047,-0.142 0.108,-0.359 0.173,-0.686 1.266,-6.258 2.478,-14.285 3.651,-22.047 0.937,-6.203 1.823,-12.062 2.726,-17.038 1.825,-10.048 6.204,-35.663 7.443,-56.429 C 63.666,70.046 63.922,54.4 59.487,40.186 53.3,20.349 44.609,9.614 31.308,5.378 29.49,4.799 28.296,2.836 27.956,1.26 c -0.675,-3.114 -1.9,-3.958 -2.764,-4.323 -3.762,-1.586 -3.997,-5.058 -4.007,-6.688 -0.084,-0.42 -0.23,-1.22 -0.404,-2.44 h 5.91 c 0.153,0.987 0.257,1.461 0.26,1.478 l 0.076,0.329 -0.001,0.338 c -0.004,1.159 0.146,1.427 0.157,1.446 0.001,10e-4 0.066,0.065 0.279,0.155 3.19,1.344 5.277,4.194 6.195,8.437 l 0.003,0.009 c 19.191,6.407 26.862,23.885 31.403,38.444 4.717,15.12 4.463,31.452 3.716,43.992 -1.258,21.084 -5.683,46.973 -7.527,57.125 -0.889,4.89 -1.768,10.708 -2.698,16.867 -1.183,7.832 -2.407,15.931 -3.7,22.332 -0.27,1.331 -1.087,5.373 -6.026,5.373 H 48.776 -15.1 -15.151 c -4.954,0 -5.773,-4.042 -6.042,-5.373 -1.294,-6.401 -2.518,-14.5 -3.701,-22.332 -0.93,-6.159 -1.809,-11.977 -2.698,-16.867 -1.844,-10.147 -6.267,-36.028 -7.527,-57.125 -0.748,-12.538 -1.003,-28.868 3.716,-43.992 C -26.861,23.885 -19.19,6.408 0,0" /></g><g
           transform="translate(270.7833,88.4004)"
           id="g48"><path
             id="path50"
             style="fill:#373535;fill-opacity:1;fill-rule:nonzero;stroke:none"
             d="m 0,0 c -12.505,2.854 -22.804,6.999 -31.421,12.654 -0.106,3.486 -2.234,5.098 -3.585,6.12 -1.168,0.885 -1.274,1.035 -1.263,1.768 l 0.002,0.161 -0.015,0.16 c -0.002,0.021 -0.028,0.295 -0.07,0.779 h -5.864 c 0.05,-0.577 0.086,-0.985 0.105,-1.185 0.015,-3.64 2.24,-5.325 3.578,-6.339 1.241,-0.94 1.432,-1.085 1.208,-2.491 l -0.291,-1.82 1.517,-1.046 c 6.845,-4.717 14.66,-8.489 23.687,-11.415 -7.848,0.28 -19.65,0.569 -34.938,0.569 -14.567,0 -25.497,-0.263 -32.85,-0.53 8.975,2.921 16.751,6.679 23.566,11.376 l 1.518,1.046 -0.291,1.82 c -0.225,1.407 -0.033,1.552 1.208,2.491 1.337,1.014 3.562,2.699 3.577,6.339 0.018,0.2 0.055,0.608 0.104,1.185 h -5.863 c -0.043,-0.484 -0.068,-0.758 -0.07,-0.779 l -0.016,-0.16 0.002,-0.161 c 0.012,-0.734 -0.095,-0.883 -1.263,-1.768 -1.35,-1.022 -3.478,-2.634 -3.584,-6.12 C -69.931,6.999 -80.23,2.854 -92.734,0 c -3.488,-0.796 -4.665,-3.441 -4.284,-5.562 0.39,-2.162 2.318,-3.681 4.461,-3.681 0.2,0 0.401,0.014 0.603,0.04 0.426,0.044 0.749,0.126 1.013,0.219 1.929,0.133 16.295,1.057 43.591,1.057 27.346,0 43.411,-0.927 45.562,-1.059 0.254,-0.091 0.556,-0.17 0.921,-0.206 2.46,-0.327 4.725,1.266 5.151,3.63 C 4.666,-3.441 3.488,-0.796 0,0" /></g><g
           transform="translate(185.9695,286.7597)"
           id="g52"><path
             id="path54"
             style="fill:#aa4956;fill-opacity:1;fill-rule:nonzero;stroke:none"
             d="M 0,0 C 3.935,-6.975 15.029,-9.749 23.86,-7.205 29.133,-5.686 36.556,0.93 45.093,6.972 57.586,15.815 71.921,7.378 74.772,6.9 80.37,-33.035 79.225,-50.901 70.338,-67.875 59.398,-88.773 37.328,-95.485 18.798,-82.435 1.777,-70.448 -7.613,-37.586 0,0" /></g><g
           transform="translate(121.9266,180.0026)"
           id="g56"><path
             id="path58"
             style="fill:#373535;fill-opacity:1;fill-rule:nonzero;stroke:none"
             d="m 0,0 1.166,5.017 13.22,-2.755 2.349,-26.257 1.409,-0.302 L 32.161,-1.442 44.139,-3.938 42.95,-9 23.905,-36.368 5.088,-32.293 Z" /></g><g
           transform="translate(169.896,175.8195)"
           id="g60"><path
             id="path62"
             style="fill:#373535;fill-opacity:1;fill-rule:nonzero;stroke:none"
             d="m 0,0 12.443,-1.595 -4.007,-35.89 -12.418,1.707 z" /></g><g
           transform="translate(188.7475,173.7841)"
           id="g64"><path
             id="path66"
             style="fill:#373535;fill-opacity:1;fill-rule:nonzero;stroke:none"
             d="m 0,0 14.094,-0.693 11.332,-20.241 1.294,-0.055 0.503,19.651 11.718,-0.576 -0.909,-35.667 -13.839,0.491 -11.343,20.13 -1.308,0.057 -0.508,-19.72 -11.97,0.425 z" /></g><g
           transform="translate(262.829,159.2123)"
           id="g68"><path
             id="path70"
             style="fill:#373535;fill-opacity:1;fill-rule:nonzero;stroke:none"
             d="m 0,0 16.746,-13.692 0.531,-5.245 -12.319,-1.035 -13.887,12.126 -2.495,-2.181 1.077,-11.23 -14.565,-1.224 -3.28,35.263 14.435,1.524 1.081,-11.276 1.336,0.131 13.391,12.813 11.084,1.172 0.524,-5.182 z" /></g><g
           transform="translate(301.5622,152.9963)"
           id="g72"><path
             id="path74"
             style="fill:#373535;fill-opacity:1;fill-rule:nonzero;stroke:none"
             d="m 0,0 c 1.598,-1.357 3.998,-1.674 7.201,-0.95 3.209,0.723 5.202,2.033 5.981,3.932 L 8.577,21.048 c -1.603,1.35 -4.007,1.654 -7.205,0.913 -3.195,-0.74 -5.175,-2.057 -5.946,-3.949 z m -19.362,16.669 c 0.848,2.414 2.796,4.812 5.848,7.197 3.057,2.388 7.383,4.236 12.991,5.545 5.621,1.313 10.39,1.575 14.299,0.784 3.916,-0.795 6.846,-2.069 8.783,-3.824 L 28.21,4.285 C 27.342,1.846 25.353,-0.569 22.241,-2.957 19.136,-5.342 14.753,-7.166 9.104,-8.43 3.47,-9.69 -1.284,-9.905 -5.164,-9.076 c -3.872,0.826 -6.759,2.117 -8.664,3.873 z" /></g><g
           transform="translate(145.0164,120.3671)"
           id="g76"><path
             id="path78"
             style="fill:#373535;fill-opacity:1;fill-rule:nonzero;stroke:none"
             d="M 0,0 C 0.19,1.113 0.285,1.669 0.474,2.781 4.189,7.369 6.033,9.668 9.698,14.277 7.08,14.719 5.771,14.943 3.156,15.395 3.373,16.691 3.482,17.338 3.698,18.634 8.067,17.877 10.253,17.506 14.63,16.779 14.45,15.665 14.36,15.108 14.18,13.993 10.529,9.374 8.692,7.07 4.99,2.472 7.842,1.986 9.269,1.746 12.124,1.272 11.913,-0.024 11.807,-0.673 11.595,-1.969 6.953,-1.198 4.634,-0.804 0,0" /></g><g
           transform="translate(187.1868,126.0115)"
           id="g80"><path
             id="path82"
             style="fill:#373535;fill-opacity:1;fill-rule:nonzero;stroke:none"
             d="M 0,0 C 0.825,-0.065 1.238,-0.098 2.063,-0.162 3.582,-0.281 4.609,0.677 4.713,2.082 4.82,3.514 3.973,4.561 2.484,4.676 1.64,4.742 1.218,4.775 0.374,4.841 0.224,2.905 0.15,1.937 0,0 m -0.631,-8.141 c 0.894,-0.071 1.341,-0.106 2.236,-0.176 1.664,-0.13 2.816,0.954 2.933,2.522 0.115,1.54 -0.837,2.729 -2.495,2.858 -0.903,0.07 -1.354,0.106 -2.256,0.177 -0.167,-2.153 -0.25,-3.229 -0.418,-5.381 m -2.6,16.267 C -0.521,7.905 0.835,7.797 3.546,7.587 6.869,7.329 8.778,5.15 8.577,2.363 8.442,0.495 7.384,-0.95 5.719,-1.667 7.507,-2.619 8.499,-4.406 8.349,-6.49 8.133,-9.492 5.613,-11.62 2.06,-11.346 c -2.722,0.211 -4.082,0.319 -6.803,0.541 0.61,7.573 0.912,11.359 1.512,18.931" /></g><g
           transform="translate(206.2118,113.6844)"
           id="g84"><path
             id="path86"
             style="fill:#373535;fill-opacity:1;fill-rule:nonzero;stroke:none"
             d="M 0,0 C 0.217,7.595 0.325,11.392 0.538,18.987 4.657,18.867 6.716,18.814 10.835,18.72 10.806,17.364 10.791,16.685 10.761,15.329 8.176,15.387 6.883,15.419 4.298,15.488 4.254,13.796 4.233,12.95 4.189,11.257 6.345,11.199 7.423,11.172 9.58,11.121 9.551,9.851 9.536,9.216 9.507,7.947 7.347,7.997 6.266,8.024 4.106,8.082 4.056,6.162 4.031,5.202 3.981,3.282 6.64,3.21 7.969,3.177 10.628,3.117 10.598,1.761 10.583,1.083 10.553,-0.274 6.332,-0.178 4.221,-0.123 0,0" /></g><g
           transform="translate(235.7117,120.5928)"
           id="g88"><path
             id="path90"
             style="fill:#373535;fill-opacity:1;fill-rule:nonzero;stroke:none"
             d="m 0,0 c 1.495,0.039 2.243,0.06 3.737,0.102 0.012,-0.39 0.017,-0.585 0.028,-0.975 0.108,-3.851 -2.426,-6.367 -6.043,-6.456 -3.7,-0.091 -6.326,2.217 -6.406,6.068 -0.057,2.82 -0.086,4.231 -0.143,7.051 -0.078,3.852 2.528,6.319 6.158,6.409 3.574,0.088 6.13,-2.171 6.237,-6.022 C 3.577,5.862 3.582,5.705 3.591,5.39 2.1,5.348 1.355,5.328 -0.136,5.289 -0.144,5.615 -0.148,5.778 -0.156,6.103 -0.201,7.839 -1.15,8.845 -2.642,8.808 -4.108,8.771 -5.008,7.72 -4.968,5.984 c 0.065,-2.875 0.098,-4.312 0.164,-7.186 0.039,-1.762 0.993,-2.745 2.468,-2.709 1.506,0.037 2.41,1.066 2.365,2.827 C 0.017,-0.651 0.012,-0.434 0,0" /></g><g
           transform="translate(249.7661,114.2155)"
           id="g92"><path
             id="path94"
             style="fill:#373535;fill-opacity:1;fill-rule:nonzero;stroke:none"
             d="m 0,0 c -0.08,1.126 -0.12,1.689 -0.2,2.815 2.528,5.351 3.782,8.029 6.268,13.389 -2.652,-0.203 -3.978,-0.301 -6.63,-0.493 -0.092,1.311 -0.138,1.966 -0.23,3.276 4.43,0.32 6.645,0.487 11.071,0.838 0.087,-1.126 0.13,-1.688 0.216,-2.814 C 8.025,11.644 6.779,8.963 4.267,3.605 7.157,3.821 8.602,3.931 11.49,4.159 11.593,2.85 11.644,2.195 11.746,0.886 7.05,0.515 4.7,0.337 0,0" /></g><g
           transform="translate(270.0812,135.0722)"
           id="g96"><path
             id="path98"
             style="fill:#373535;fill-opacity:1;fill-rule:nonzero;stroke:none"
             d="m 0,0 c 1.526,0.191 2.289,0.288 3.814,0.483 0.425,-3.448 0.638,-5.171 1.066,-8.618 1.385,3.678 2.074,5.518 3.442,9.2 1.707,0.223 2.559,0.336 4.264,0.563 -1.653,-3.856 -2.484,-5.782 -4.158,-9.633 2.734,-3.672 4.109,-5.506 6.874,-9.167 -1.725,-0.23 -2.588,-0.345 -4.313,-0.571 -2.404,3.419 -3.6,5.131 -5.979,8.558 0.456,-3.673 0.685,-5.509 1.146,-9.182 C 4.613,-18.564 3.842,-18.662 2.298,-18.855 1.37,-11.313 0.911,-7.543 0,0" /></g><g
           transform="translate(292.1684,138.2411)"
           id="g100"><path
             id="path102"
             style="fill:#373535;fill-opacity:1;fill-rule:nonzero;stroke:none"
             d="M 0,0 C 1.556,0.272 2.334,0.409 3.889,0.685 5.168,-6.8 5.814,-10.541 7.116,-18.024 5.543,-18.303 4.757,-18.441 3.182,-18.717 1.898,-11.231 1.262,-7.488 0,0" /></g></g></g></g></svg>